HIERARCHY
ROOT Hips
{
	OFFSET -0.001795 -0.223333 0.028219
	CHANNELS 6 Xposition Yposition Zposition Zrotation Yrotation Xrotation 
	JOINT LeftUpLeg
	{
		OFFSET 0.069520 -0.091406 -0.006815
		CHANNELS 3 Zrotation Yrotation Xrotation
		JOINT LeftLeg
		{
			OFFSET 0.034277 -0.375199 -0.004496
			CHANNELS 3 Zrotation Yrotation Xrotation
			JOINT LeftFoot
			{
				OFFSET -0.013596 -0.397961 -0.043693
				CHANNELS 3 Zrotation Yrotation Xrotation
				JOINT LeftToe
				{
					OFFSET 0.026358 -0.055791 0.119288
					CHANNELS 3 Zrotation Yrotation Xrotation
					End Site
					{
						OFFSET 0.000000 0.000000 0.000000
					}
				}
			}
		}
	}
	JOINT RightUpLeg
	{
		OFFSET -0.067670 -0.090522 -0.004320
		CHANNELS 3 Zrotation Yrotation Xrotation
		JOINT RightLeg
		{
			OFFSET -0.038290 -0.382569 -0.008850
			CHANNELS 3 Zrotation Yrotation Xrotation
			JOINT RightFoot
			{
				OFFSET 0.015774 -0.398415 -0.042312
				CHANNELS 3 Zrotation Yrotation Xrotation
				JOINT RightToe
				{
					OFFSET -0.025372 -0.048144 0.123348
					CHANNELS 3 Zrotation Yrotation Xrotation
					End Site
					{
						OFFSET 0.000000 0.000000 0.000000
					}
				}
			}
		}
	}
	JOINT Spine
	{
		OFFSET -0.002533 0.108963 -0.026696
		CHANNELS 3 Zrotation Yrotation Xrotation
		JOINT Spine1
		{
			OFFSET 0.005487 0.135180 0.001092
			CHANNELS 3 Zrotation Yrotation Xrotation
			JOINT Spine2
			{
				OFFSET 0.001457 0.052922 0.025425
				CHANNELS 3 Zrotation Yrotation Xrotation
				JOINT Neck
				{
					OFFSET -0.002778 0.213870 -0.042857
					CHANNELS 3 Zrotation Yrotation Xrotation
					JOINT Head
					{
						OFFSET 0.005152 0.064970 0.051349
						CHANNELS 3 Zrotation Yrotation Xrotation
						End Site
						{
							OFFSET 0.000000 0.000000 0.000000
						}
					}
				}
				JOINT LeftShoulder
				{
					OFFSET 0.078845 0.121749 -0.034090
					CHANNELS 3 Zrotation Yrotation Xrotation
					JOINT LeftArm
					{
						OFFSET 0.090977 0.030469 -0.008868
						CHANNELS 3 Zrotation Yrotation Xrotation
						JOINT LeftForeArm
						{
							OFFSET 0.259612 -0.012772 -0.027456
							CHANNELS 3 Zrotation Yrotation Xrotation
							JOINT LeftHand
							{
								OFFSET 0.249234 0.008986 -0.001171
								CHANNELS 3 Zrotation Yrotation Xrotation
								End Site
								{
									OFFSET 0.000000 0.000000 0.000000
								}
							}
						}
					}
				}
				JOINT RightShoulder
				{
					OFFSET -0.081759 0.118833 -0.038615
					CHANNELS 3 Zrotation Yrotation Xrotation
					JOINT RightArm
					{
						OFFSET -0.096012 0.032551 -0.009143
						CHANNELS 3 Zrotation Yrotation Xrotation
						JOINT RightForeArm
						{
							OFFSET -0.253742 -0.013329 -0.021401
							CHANNELS 3 Zrotation Yrotation Xrotation
							JOINT RightHand
							{
								OFFSET -0.255298 0.007772 -0.005559
								CHANNELS 3 Zrotation Yrotation Xrotation
								End Site
								{
									OFFSET 0.000000 0.000000 0.000000
								}
							}
						}
					}
				}
			}
		}
	}
}
MOTION
Frames: 9
Frame Time: 0.050000
0.000000 0.954193 0.000000 1.574439 8.171858 0.708424 6.374158 -1.198925 -20.763668 -8.588850 1.246894 33.464293 6.189912 14.121923 5.780202 0.000000 0.000000 0.000000 2.637921 0.478305 -4.094111 1.838138 -0.115841 12.922665 -2.667439 -6.707883 -0.728349 0.000000 0.000000 0.000000 0.259190 -0.884511 16.245540 2.674631 0.053659 -22.383592 0.278519 0.166195 24.487580 -0.625155 2.465390 -21.441698 0.000000 0.000000 0.000000 -27.469575 -2.384611 -2.244449 -44.972499 -8.573909 -3.645787 -14.292833 -30.468231 5.072234 0.000000 0.000000 0.000000 14.257709 9.361645 4.865206 45.420387 11.788860 -2.292131 8.352721 33.164669 4.040992 0.000000 0.000000 0.000000 
0.006492 0.956181 0.021877 1.704709 7.641485 1.231941 6.090572 -1.259525 -21.316069 -7.192610 0.884793 23.672790 4.013051 10.550793 6.696379 0.000000 0.000000 0.000000 2.436150 0.270656 -2.453459 1.311151 0.019665 11.518699 -2.185586 -5.709770 0.251073 0.000000 0.000000 0.000000 0.006870 -0.869183 16.768342 3.175199 0.015295 -24.988775 0.401943 0.407507 25.546128 -1.291391 3.002640 -24.132400 0.000000 0.000000 0.000000 -27.432024 -1.177613 -2.943683 -45.073450 -8.509708 -3.784943 -17.644090 -31.250658 6.187610 0.000000 0.000000 0.000000 13.161223 8.900830 4.550689 46.036833 11.687892 -2.402393 8.799859 32.832556 4.150164 0.000000 0.000000 0.000000 
0.013483 0.955428 0.044610 1.188814 4.749717 0.006290 5.015101 -1.203690 -19.985173 -3.814853 0.241612 14.723979 1.256561 5.700657 7.370936 0.000000 0.000000 0.000000 2.536616 -0.245609 1.622053 0.890825 0.130671 9.142182 -1.002566 -2.793215 0.533078 0.000000 0.000000 0.000000 -0.412816 -0.808332 18.191938 3.375216 -0.049176 -25.757594 0.785803 1.378252 27.002227 -0.821621 2.629723 -23.992402 0.000000 0.000000 0.000000 -26.852037 -1.037443 -2.583816 -45.815530 -9.687578 -3.642194 -15.329990 -30.736251 5.534476 0.000000 0.000000 0.000000 11.559017 9.629469 4.609542 48.004478 11.929247 -2.353833 7.128104 34.067113 3.855221 0.000000 0.000000 0.000000 
0.020788 0.953493 0.068032 0.992829 3.022856 -0.050735 4.343381 -1.107653 -17.911757 -2.443225 0.125338 7.837871 -1.804313 0.607362 8.652085 0.000000 0.000000 0.000000 2.383791 -0.533450 3.932417 0.741188 0.159057 8.167631 -0.521791 -1.241974 -0.230696 0.000000 0.000000 0.000000 -1.817724 -0.523099 18.181439 4.921187 -0.450156 -25.447205 0.697644 1.759592 27.348147 -0.582477 2.504352 -26.374076 0.000000 0.000000 0.000000 -27.002458 -0.471385 -2.701036 -45.754441 -10.259103 -3.527288 -16.123938 -29.928971 5.645264 0.000000 0.000000 0.000000 12.242108 10.279862 4.859709 47.851420 13.057917 -1.934944 6.730941 32.568524 3.465111 0.000000 0.000000 0.000000 
0.028710 0.950006 0.091674 -0.074717 0.971924 -0.146503 4.411279 -0.963966 -16.723318 -1.425258 -0.007830 7.067094 -2.341836 -0.412101 8.943805 0.000000 0.000000 0.000000 2.686057 -0.685152 5.008382 0.272088 0.275942 8.402259 0.340827 1.478651 -1.095487 0.000000 0.000000 0.000000 -2.233167 -0.408409 18.498871 5.807097 -0.752239 -24.519059 0.895643 2.110215 27.243688 -0.174544 2.136708 -26.283744 0.000000 0.000000 0.000000 -26.662708 -1.106147 -1.926950 -46.049959 -11.061349 -3.338846 -14.657149 -29.521740 5.235599 0.000000 0.000000 0.000000 12.470700 10.599240 4.875879 48.238635 12.988194 -1.935833 3.881621 33.842657 2.782443 0.000000 0.000000 0.000000 
0.037195 0.948140 0.115198 -0.523777 -1.290843 0.504186 4.568230 -0.860484 -16.278220 -1.288112 -0.026744 8.025753 -1.501411 0.936223 9.149609 0.000000 0.000000 0.000000 2.333577 -0.601503 4.517027 0.344202 0.387665 10.880843 0.688613 3.273613 -2.409119 0.000000 0.000000 0.000000 -3.220767 -0.163149 18.260559 6.395269 -0.961450 -24.013352 0.667157 1.428645 27.181551 0.000323 1.724485 -26.591543 0.000000 0.000000 0.000000 -27.039527 -1.284656 -1.100448 -44.804672 -11.666627 -3.266628 -13.958675 -29.967355 5.241126 0.000000 0.000000 0.000000 12.847658 11.656388 5.044711 48.791439 13.417253 -1.729642 2.760908 34.182614 2.370836 0.000000 0.000000 0.000000 
0.046064 0.948914 0.138856 -0.937655 -4.490930 1.581057 4.668754 -0.752790 -16.007790 -1.413535 0.029832 8.837707 -0.166030 2.837603 8.767452 0.000000 0.000000 0.000000 1.679484 -0.340893 2.553171 0.229365 0.645773 14.430203 0.748801 3.069229 -1.740771 0.000000 0.000000 0.000000 -3.734185 0.032610 17.547699 6.036062 -0.916223 -23.886700 0.745755 1.578224 27.066129 0.362251 1.233742 -26.375830 0.000000 0.000000 0.000000 -27.456140 -1.637106 -0.236562 -43.435534 -12.497905 -3.114256 -13.218198 -29.680518 5.068215 0.000000 0.000000 0.000000 13.816348 11.394411 4.638329 48.929641 13.690749 -1.578084 2.774211 33.980016 2.245174 0.000000 0.000000 0.000000 
0.055042 0.951733 0.162171 -0.952169 -6.654167 1.775557 4.301393 -0.679695 -14.237478 -1.519503 0.085781 8.925428 0.484053 3.520971 7.855917 0.000000 0.000000 0.000000 0.380632 0.011826 -0.288323 1.437214 0.776421 20.704786 0.072302 0.596998 -0.651719 0.000000 0.000000 0.000000 -4.394433 0.213038 17.347764 5.687881 -0.958802 -22.728906 0.606175 0.880574 26.407978 0.199257 0.986799 -25.790058 0.000000 0.000000 0.000000 -27.161044 -2.451766 1.028057 -42.949575 -14.148097 -2.693432 -11.640590 -28.629857 4.531072 0.000000 0.000000 0.000000 14.718179 11.660914 4.351989 49.473499 13.686961 -1.428553 1.933808 34.142450 1.865405 0.000000 0.000000 0.000000 
0.063049 0.954937 0.184859 -1.137051 -8.238173 1.375139 4.450873 -0.541930 -12.023167 -2.480659 0.310283 8.522497 1.564367 5.484295 8.523358 0.000000 0.000000 0.000000 -0.909587 0.312131 -3.125820 2.605924 1.044826 28.876339 0.320486 -0.937926 2.841850 0.000000 0.000000 0.000000 -5.284058 0.421427 17.698263 5.990608 -1.084075 -22.466079 0.743336 0.248224 26.437922 0.877514 0.325115 -25.511470 0.000000 0.000000 0.000000 -27.684139 -3.297428 2.204617 -41.496506 -15.024631 -2.612632 -10.990950 -28.509697 4.388138 0.000000 0.000000 0.000000 15.256179 11.885619 4.109422 49.339257 14.094129 -1.206155 2.857039 33.754667 1.978680 0.000000 0.000000 0.000000 
